<?xml version="1.0" standalone="no"?>
<!DOCTYPE svg PUBLIC "-//W3C//DTD SVG 20010904//EN"
 "http://www.w3.org/TR/2001/REC-SVG-20010904/DTD/svg10.dtd">
<svg version="1.0" xmlns="http://www.w3.org/2000/svg"
 width="512.000000pt" height="512.000000pt" viewBox="0 0 512.000000 512.000000"
 preserveAspectRatio="xMidYMid meet">
<metadata>
Created by potrace 1.14, written by Peter Selinger 2001-2017
</metadata>
<g transform="translate(0.000000,512.000000) scale(0.100000,-0.100000)"
fill="#000000" stroke="none">
<path d="M2695 4338 c-504 -30 -847 -305 -889 -714 -10 -89 10 -197 51 -284
43 -89 153 -205 275 -288 106 -73 342 -193 613 -312 298 -132 485 -227 566
-289 176 -133 203 -207 129 -358 -70 -143 -238 -257 -427 -290 -119 -21 -390
-13 -520 15 -325 70 -628 231 -786 417 -78 92 -126 171 -153 253 l-20 64 -48
-62 c-102 -137 -158 -304 -139 -417 17 -98 57 -167 153 -263 228 -227 616
-398 1041 -460 130 -19 329 -8 453 25 362 95 597 375 637 756 17 166 -3 310
-62 436 -38 81 -156 205 -259 271 -73 48 -316 173 -547 281 -321 151 -538 280
-656 391 -127 119 -139 212 -37 304 106 95 360 154 618 143 348 -14 640 -125
826 -313 l63 -64 41 30 c112 81 178 290 140 448 -13 53 -14 54 -73 78 -206 84
-474 167 -615 189 -86 14 -266 20 -375 13z"/>
<path d="M1409 3313 c-13 -16 -12 -17 4 -4 9 7 17 15 17 17 0 8 -8 3 -21 -13z"/>
<path d="M1032 3250 c-507 -265 -782 -625 -783 -1026 0 -207 59 -375 199 -564
132 -177 317 -325 573 -459 285 -149 613 -247 992 -296 65 -8 135 -14 155 -14
21 1 5 5 -38 10 -207 25 -444 78 -635 142 -834 283 -1278 861 -1099 1429 59
187 142 308 353 518 150 150 172 167 388 307 41 27 2 9 -105 -47z"/>
<path d="M2253 883 c9 -2 25 -2 35 0 9 3 1 5 -18 5 -19 0 -27 -2 -17 -5z"/>
</g>
</svg>
